<mxfile host="app.diagrams.net" modified="2024-03-21T22:45:24.728Z" agent="Mozilla/5.0 (Windows NT 10.0; Win64; x64) AppleWebKit/537.36 (KHTML, like Gecko) Chrome/122.0.0.0 Safari/537.36" version="24.0.5" etag="hi8aEgPscypLLy_qr8tH" type="github">
  <diagram name="Page-1" id="TGuICLOKiHaSP5MEHiE4">
    <mxGraphModel>
      <root>
        <mxCell id="0" />
        <mxCell id="1" parent="0" />
      </root>
    </mxGraphModel>
  </diagram>
</mxfile>
